# xmcd
#
# Track frame offsets: 
#        150
#        9842
#        32626
#        51868
#        67570
#        80218
#        91238
#        101672
#        122468
#        138294
#        160269
#
# Disc length: 2300 seconds
#
# Revision: 0
# Processed by: cddbd v1.5PL3 Copyright (c) Steve Scherf et al.
# Submitted via: ExactAudioCopy v0.95a5
#
DISCID=7c08fa0b
DTITLE=Stagger Lee - Fool To Roam
DYEAR=1900
DGENRE=Bluegrass
TTITLE0=Fool To Roam
TTITLE1=Is This Not The Land Of Beulha
TTITLE2=Wayfaring Stranger
TTITLE3=My Heart Belongs To You
TTITLE4=Fox On The Run
TTITLE5=Yes I Know
TTITLE6=Orange Blossom Special
TTITLE7=That Little Girl OfMine
TTITLE8=Medley ( I Saw The Light , I'll Fly Away , Life's railway ) 
TTITLE9=Will The Circle Be Unbroken
TTITLE10=America , The Beautiful
EXTD=
EXTT0=
EXTT1=
EXTT2=
EXTT3=
EXTT4=
EXTT5=
EXTT6=
EXTT7=
EXTT8=
EXTT9=
EXTT10=
PLAYORDER=
